<?xml version="1.0" encoding="UTF-8" standalone="no"?>
<!-- Created with Inkscape (http://www.inkscape.org/) -->

<svg
   xmlns:dc="http://purl.org/dc/elements/1.1/"
   xmlns:cc="http://creativecommons.org/ns#"
   xmlns:rdf="http://www.w3.org/1999/02/22-rdf-syntax-ns#"
   xmlns:svg="http://www.w3.org/2000/svg"
   xmlns="http://www.w3.org/2000/svg"
   xmlns:sodipodi="http://sodipodi.sourceforge.net/DTD/sodipodi-0.dtd"
   xmlns:inkscape="http://www.inkscape.org/namespaces/inkscape"
   width="103.08276mm"
   height="113.54369mm"
   viewBox="0 0 103.08276 113.54369"
   version="1.1"
   id="svg8"
   inkscape:version="0.92.2 (5c3e80d, 2017-08-06)"
   sodipodi:docname="Monstera leaf.svg">
  <defs
     id="defs2" />
  <sodipodi:namedview
     id="base"
     pagecolor="#ffffff"
     bordercolor="#666666"
     borderopacity="1.0"
     inkscape:pageopacity="0.0"
     inkscape:pageshadow="2"
     inkscape:zoom="0.35"
     inkscape:cx="288.58399"
     inkscape:cy="-38.227724"
     inkscape:document-units="mm"
     inkscape:current-layer="layer1"
     showgrid="false"
     inkscape:snap-global="false"
     inkscape:window-width="1366"
     inkscape:window-height="721"
     inkscape:window-x="-4"
     inkscape:window-y="-4"
     inkscape:window-maximized="1"
     fit-margin-top="0"
     fit-margin-left="0"
     fit-margin-right="0"
     fit-margin-bottom="0" />
  <metadata
     id="metadata5">
    <rdf:RDF>
      <cc:Work
         rdf:about="">
        <dc:format>image/svg+xml</dc:format>
        <dc:type
           rdf:resource="http://purl.org/dc/dcmitype/StillImage" />
        <dc:title></dc:title>
      </cc:Work>
    </rdf:RDF>
  </metadata>
  <g
     inkscape:label="Layer 1"
     inkscape:groupmode="layer"
     id="layer1"
     transform="translate(-67.024798,-78.761126)">
    <path
       style="opacity:1;vector-effect:none;fill:#4e9a06;fill-opacity:1;stroke:none;stroke-width:0.26458332;stroke-linecap:butt;stroke-linejoin:miter;stroke-miterlimit:4;stroke-dasharray:none;stroke-dashoffset:0;stroke-opacity:1"
       d="m 83.626489,122.5799 c 5.610166,5.28073 12.918957,6.60395 15.710736,4.9047 4.155205,-2.52912 1.709855,-9.33575 2.322075,-10.58944 7.37889,7.13396 13.19463,6.4412 19.97952,-1.73826 1.7621,-2.12428 1.63453,-7.23085 -0.24333,-12.93157 -0.41016,1.00311 -0.88765,1.9322 -1.45901,2.73955 -3.99473,5.64467 -9.83939,8.15195 -11.10707,7.17363 -0.0845,-0.0652 -0.14871,-0.1459 -0.19063,-0.24221 -1.0301,-2.36643 5.2142,-5.08855 7.67229,-8.86395 0.97289,-1.49427 1.74333,-4.321694 2.32269,-7.192524 -1.97411,-3.65437 -4.61803,-7.19813 -7.90031,-10.03929 -0.22319,-0.19319 -0.44907,-0.38028 -0.67587,-0.56378 0.36136,3.63942 0.71955,7.86311 0.0766,10.19438 -1.88044,6.817854 -5.23684,10.994684 -5.99694,10.377634 -1.16729,-0.94762 2.72628,-6.795154 3.75475,-10.933364 0.73709,-2.96587 0.20065,-8.43687 -0.16381,-11.32384 -2.86756,-1.84625 -5.92704,-3.04202 -8.950023,-3.77788 2.340003,3.26053 3.395213,6.43887 3.030673,9.99229 -0.5786,5.64004 -2.364255,11.194554 -3.314861,10.831064 -0.02971,-0.0114 -0.05577,-0.0312 -0.07876,-0.0587 -0.712538,-0.850054 1.708441,-9.221784 1.300848,-12.962864 -0.284722,-2.6133 -1.320151,-5.56361 -2.994214,-8.23511 -2.187427,-0.39138 -4.32735,-0.56036 -6.330865,-0.57924 1.412799,2.14261 2.48591,4.1652 2.782906,5.73044 0.591892,3.1194 -0.0084,9.89725 -1.42368,9.61906 -0.08846,-0.0174 -0.165146,-0.0618 -0.231529,-0.13014 -0.99576,-1.02573 0.335026,-7.48471 -0.715637,-10.26409 -0.429399,-1.1359 -1.54731,-3.01876 -2.761723,-4.91102 -5.224111,0.24921 -9.115087,1.42464 -9.756293,1.94653 -0.845246,0.68796 -3.710778,5.92861 -4.410633,13.14004 0.985551,1.31743 2.028639,2.41044 3.01057,3.08181 2.680668,1.83284 9.713637,5.499314 9.419558,6.514034 -0.284888,0.98301 -5.050373,-0.24092 -7.813973,-2.71308 -0.08915,-0.0797 -0.176115,-0.16076 -0.260878,-0.24307 -1.153111,-1.119774 -2.859366,-2.799434 -4.487174,-4.618754 -0.01415,0.39546 -0.02382,0.79361 -0.02339,1.19822 0.0023,2.14261 0.528684,4.488644 1.213782,6.865664 2.657336,2.1917 5.316865,3.60224 7.823589,4.46658 4.000065,1.37926 9.047423,2.18173 8.881579,3.05762 -0.165849,0.87589 -6.025357,1.50976 -9.512503,-0.42481 -1.525627,-0.84637 -3.730827,-2.6895 -5.805367,-4.58763 -0.295012,-0.26993 -0.585847,-0.54067 -0.87325,-0.8101 0.660213,2.12206 1.375728,4.23721 1.89923,6.22409 0.197812,0.75076 0.42773,1.4714 0.683141,2.16596 1.913014,1.56448 3.556163,2.54478 5.739433,3.02764 3.845337,0.85044 8.01704,-0.18429 7.941797,1.28984 -0.07523,1.47412 -5.093073,1.67587 -7.332466,0.77648 -1.510767,-0.60676 -2.976568,-1.51674 -5.768209,-3.6608 1.282359,2.87531 3.044391,5.22177 5.016672,7.07823 z"
       id="path826"
       inkscape:connector-curvature="0"
       sodipodi:nodetypes="cccscsccsccccccccsccsccsccccccsscccccsccccccccsccc" />
    <path
       style="opacity:1;vector-effect:none;fill:#4e9a06;fill-opacity:1;stroke:none;stroke-width:0.26458329;stroke-linecap:butt;stroke-linejoin:miter;stroke-miterlimit:4;stroke-dasharray:none;stroke-dashoffset:0;stroke-opacity:1"
       d="m 168.83177,142.81832 c -2.71925,7.97574 -9.65057,13.07905 -19.56776,12.6773 -1.32367,-0.0536 0.0728,-8.75302 -1.56556,-8.83111 -0.98939,-0.0472 -3.61863,7.91617 -5.11098,7.7779 -4.74903,-0.44003 -13.8349,-0.29465 -15.87225,-11.68709 7.42473,4.8482 15.55077,4.15711 16.27668,1.93971 0.0165,-0.0506 0.0291,-0.10198 0.0378,-0.15413 0.4599,-2.73666 -8.67679,-0.64742 -16.65532,-9.24291 0.043,-0.75484 0.10398,-1.53657 0.18875,-2.35387 0.32587,-3.14182 1.1382,-5.99047 2.2913,-8.56648 5.92803,7.19032 15.20523,14.09176 15.51007,12.85689 0.33707,-1.36552 -4.93849,-4.30068 -13.88266,-15.96476 1.48213,-2.45419 3.27457,-4.61497 5.2189,-6.49977 3.11073,9.34732 10.55616,16.22498 11.09706,15.24655 0.0111,-0.0205 0.02,-0.0438 0.0257,-0.0699 0.26479,-1.22121 -5.58073,-8.56581 -8.31197,-17.64404 1.53839,-1.22336 3.1184,-2.2899 4.67485,-3.21974 1.10341,7.18112 5.36104,12.63147 6.17871,11.64545 0.0371,-0.0448 0.0666,-0.10114 0.0888,-0.16801 0.44755,-1.34948 -2.03251,-7.10344 -2.78445,-13.35714 4.59627,-2.22515 8.45979,-3.13291 9.55529,-2.93399 2.2635,0.41103 5.23918,1.12074 8.79711,9.67605 -2.8484,7.05153 -7.52532,12.47706 -5.87469,13.32393 1.3872,0.71171 4.55146,-4.40803 6.92247,-10.61975 0.67577,1.86815 1.37136,4.03716 2.08503,6.53475 -4.52805,6.0734 -10.98249,12.06227 -9.7578,13.42184 1.10332,1.22482 5.89195,-3.76555 10.63035,-10.2254 0.90917,3.60239 1.23124,7.04603 1.01617,10.22301 -4.55352,2.9944 -9.24676,5.67153 -8.37304,6.60623 0.73408,0.78527 4.15049,-0.67351 7.88804,-3.05652 -0.19329,0.91892 -0.43479,1.80899 -0.72662,2.66497 z"
       id="path857"
       inkscape:connector-curvature="0" />
    <path
       style="opacity:1;fill:#4e9a06;fill-opacity:1;stroke:none;stroke-width:0.26499999;stroke-linecap:round;stroke-miterlimit:4;stroke-dasharray:none;stroke-opacity:1"
       d="m 114.76084,158.57424 c 0.7379,1.24094 8.32704,-2.56194 8.87305,-1.29457 3.02205,7.01456 2.9248,14.32716 -2.28526,20.75433 -4.43957,-5.68358 -10.34216,-10.87863 -11.41168,-9.85543 -1.15277,1.10288 3.81128,7.01896 7.45657,13.75972 -1.27265,1.02776 -2.70681,2.02264 -4.31352,2.97808 -1.529,0.90924 -3.15434,1.74587 -4.84481,2.50521 -1.29564,-4.70318 -2.99498,-9.31479 -4.24813,-11.4055 -0.52299,-0.87167 -0.96756,-1.30529 -1.27212,-1.12417 -1.1177,0.66463 0.66923,7.19202 1.09778,14.28411 -2.46701,0.8601 -5.011615,1.55682 -7.558952,2.0732 -0.155963,-5.50957 -0.986441,-10.87604 -1.951763,-12.68507 -0.251658,-0.47134 -0.511634,-0.70153 -0.771228,-0.62961 -1.409771,0.3905 -1.225602,5.01322 -1.866674,14.04485 -2.700937,0.31151 -5.350738,0.40757 -7.85096,0.25256 0.680781,-4.64221 0.855589,-8.59814 0.154458,-9.75178 -0.127447,-0.20846 -0.282158,-0.326 -0.468462,-0.33889 -1.571373,-0.1087 -1.742675,4.21416 -2.394451,9.81581 -5.581094,-0.79699 -9.988486,0.98036 -12.305847,-2.91659 -1.750482,-2.94371 -2.194171,-10.52424 -1.381429,-14.39125 5.638056,-0.0986 10.787877,1.14334 10.729302,0.34035 -0.0029,-0.0395 -0.01464,-0.0816 -0.03583,-0.12599 -0.425089,-0.89016 -4.479267,-2.6941 -10.060783,-2.61731 0.946889,-3.00575 2.483045,-6.11214 4.446356,-9.14153 5.913434,3.36379 9.965584,7.12001 11.182063,6.39663 0.213203,-0.12678 0.171254,-0.42561 -0.07676,-0.855 -0.946435,-1.63873 -4.898288,-5.17992 -9.160976,-8.32415 1.803923,-2.41751 3.855778,-4.74535 6.072803,-6.8897 7.836343,7.06771 8.524963,11.67263 10.250731,10.97568 0.720277,-0.2909 -0.02785,-2.22049 -1.544361,-4.76986 -1.521261,-2.55824 -3.817336,-5.73449 -6.178648,-8.50975 1.677332,-1.43818 3.420592,-2.76306 5.199993,-3.93511 8.242014,11.64987 8.159563,11.95249 9.968434,11.24815 1.339019,-0.52142 -0.978515,-8.05882 -4.643583,-14.21499 -0.0027,-0.005 -0.0054,-0.009 -0.0081,-0.0136 2.368873,-1.08867 4.623596,-1.79396 6.761467,-2.15752 4.58575,7.42078 6.96479,15.3248 8.30003,15.03357 1.22994,-0.26823 0.50271,-7.28785 -2.89536,-15.22628 5.56506,0.59695 11.47181,6.1929 15.04229,10.80371 0.80337,1.03743 -6.70554,4.73069 -6.00556,5.90785 z"
       id="path875"
       inkscape:connector-curvature="0"
       sodipodi:nodetypes="cscccccsscccccccccscccccscccccccccccccssc" />
  </g>
</svg>
